<svg xmlns="http://www.w3.org/2000/svg" viewBox="0 0 1192.13 1165.05">
    <defs>
        <style>.cls-1{fill:#f3b0be;}.cls-2{fill:#fff;}.cls-3{fill:#604c3f;}</style>
    </defs>
    <g id="Layer_2">
        <g id="layer1">
            <circle class="cls-1" cx="584.06" cy="591.5" r="573.54" transform="translate(-247.19 586.24) rotate(-45)"/>
        </g>
        <g id="layer2">
            <path class="cls-2"
                  d="M890.89,875c-16.2,97.59-51.21,195-160.29,210.39-40.26,5.7-100.56,10.2-140.52,1.89l-5.25.66c-93.66,9.15-227.22-.45-287.07-87.24-30.39-44.07-26.58-94-63.72-137.61C198,820.74,154,785.31,112.45,748.53,71.38,712.14-39.65,618.69,38.26,578.1c44.61-23.25,84.48-9,120.72,13.35C210.07,623,249.4,658.26,294.22,696.87c2.7,2.34,5.19,4.41,7.47,6.3l3.66-.48c-1.08-57.48-16.17-127.44-24.9-184.44C268.33,447.78,250.69,377.82,236,307.5c-7.35-35.16-20-72.72-24.93-110.76-6-54.42,26.4-108.54,82-79.2C354.19,152,385.9,248.7,407.74,310.35,429.22,366.54,475,526.83,489,586.23l5.58,3.63c15,18.21,9.63-99.27,11.4-107.61,9.15-74.58,11.22-151.44,15.75-225.69,5-66.09,7.29-140.22,24.18-201.6C553.54,29.82,564,12.72,587,11.28,693.31,12.75,690.64,152.7,687,240.6c.81,49.29,4,301.56,4.8,350.85l3,1.14c48.72-69.06,155-551.13,277.59-476.46,93.42,56.85-20.28,276.15-48.72,345.18-24.36,65-48.72,130-77.16,190.86l2,5c62.52-32.64,118.2-82.77,172.62-126.87,43.86-35.49,141.12-120.84,158.37-36.54,14.31,69.84-81.21,154.32-125.88,199-48.75,44.67-95.37,73.53-148.17,118.2C899.59,834.42,893.74,857.82,890.89,875Z"/>
        </g>
        <g id="layer3">
            <path class="cls-3"
                  d="M584.84,1076.74c-65.37,6.18-133.45,3.59-195.35-20.11-31-11.89-59.77-31.58-79.73-58.36-23.46-31.46-28.86-71.94-44.65-107.14-17.41-38.79-53-69.19-83.88-97.17-26.65-24.15-54.24-47.23-81-71.28-21.15-19-42.07-39-58.84-62.12-11.73-16.13-28.22-42.73-12.63-61.48,18.09-21.74,53.74-24.63,79.18-18.59,31.2,7.41,59.36,28.84,84.87,47.32s49.51,39.12,73.38,59.7c16.71,14.4,33.85,33.57,55.34,40.77,18.11,6.07,40.56.7,59.17,1A181.14,181.14,0,0,1,455.67,747c45.86,21.89,75.52,64.08,83.26,113.88,2.22,14.3,23.9,8.2,21.69-6-10.2-65.65-55.92-115.56-117.83-137.35-32.11-11.3-64.9-10.89-98.38-9.66-30.7,1.12-52.56-27.92-74.11-46.4-32.16-27.58-65.26-54-101-76.82-33.13-21.1-69.22-34.9-108.79-26.83C34.67,563.05,5.21,580.11.68,608.25c-3.89,24.18,9.61,47.58,23.27,66.37C55.82,718.48,100.46,753,141,788.38c31.38,27.33,64.56,55.33,89.82,88.65,22.18,29.28,27.28,66.68,41.39,99.75,50.26,117.78,201.18,133,312.61,122.46,14.32-1.35,14.45-23.86,0-22.5Z"/>
            <path class="cls-3"
                  d="M894.6,808c-17.84,71.38-22.21,153.17-69.8,212.94-22.45,28.21-53.44,45.18-88.5,52.2-43,8.61-92,10.91-135.08,2.5-14.17-2.76-20.21,18.92-6,21.7,46.9,9.15,95.81,5.43,142.74-1.75,37.87-5.78,72.39-24.91,98-53.19,56.07-61.85,61-151.29,80.29-228.42,3.52-14.08-18.18-20.06-21.69-6Z"/>
            <path class="cls-3"
                  d="M316.59,702.69c-1.08-42.7-8.06-85-15.19-127-7.64-45-15.1-89.88-24.55-134.51-10-47.29-20.91-94.4-31.08-141.66C236.86,258,218.54,215,222.23,171.94c1.32-15.3,7.43-30.86,18.15-41.92,13.06-13.45,31.88-10.27,47.06-2.75,29.34,14.52,49.19,47,64.14,74.74,28,51.88,46.19,110.33,64,166.4,23.15,72.77,44.89,146.49,62.53,220.81,3.35,14.12,25,8.13,21.69-6-26.69-112.5-60.1-225-102-332.86-21.8-56.16-54.62-131.55-118.1-150.17-29-8.51-55.54,7.72-69.12,32.92-17.59,32.59-11.08,70.13-3.36,104.41,17.88,79.37,37.65,158.27,53.78,238.06,7.47,36.91,13.24,74.15,19.54,111.27,6.51,38.34,12.52,76.88,13.5,115.82.37,14.48,22.87,14.52,22.5,0Z"/>
            <path class="cls-3"
                  d="M486.6,597.8c13.79,15,25.28-3.71,27.27-16.58,3.37-21.71,2.92-44.08,2.93-66,0-26.82,1.56-40.87,4.17-67.54,4.71-48.26,6.9-96.74,9.42-145.15,2.35-45.12,5.24-90.25,9-135.27,3.41-40.74,5.85-88,23.43-125.55C576.3,13,613,21.29,633.76,37.63c20.11,15.81,29.42,41.2,35.19,65.25,11,46,6,92.3,6.78,138.93q.82,51.46,1.43,102.91c1.09,82.24,2,164.49,3.34,246.73.24,14.49,22.74,14.52,22.5,0-1.6-98.59-2.66-197.19-4-295.79-.59-43.72,1.63-87.58,0-131.25C697.06,114.69,689.45,53,647.44,20,630,6.28,608.9.66,587,0c-27.71-.81-42.86,25.24-50.65,47.85-11.84,34.36-15.05,72.81-18.49,108.77-3.74,38.92-6.18,78.06-8.41,117.09-2.32,40.58-4.09,81.19-6.79,121.74-2.07,31.15-7.72,62.63-8.32,93.77-.34,18,.08,36-.3,54-.2,9.58-.61,19.17-1.5,28.72a81.7,81.7,0,0,1-1.31,8.65c-2.09,10.22,7.21-3.11,11.28,1.33-9.83-10.71-25.7,5.24-15.91,15.91Z"/>
            <path class="cls-3"
                  d="M704.49,598.26c17.07-24.65,26.22-56.12,36.27-84,16.27-45.17,31.42-90.74,47.68-135.92,17.34-48.21,35.63-96.22,57.74-142.47,16.9-35.36,36.12-72.93,65.36-99.81,21.13-19.42,45.73-22,66.78-.82,33.78,34,17.24,99.22,6.46,139.13C970.55,327,948.5,377.22,926.41,427c-32.11,72.28-56.29,147.71-89.63,219.55-6.06,13.07,13.33,24.51,19.43,11.36,33.33-71.85,57.54-147.28,89.62-219.55,22.43-50.5,44.56-101.34,59.7-154.59,13.15-46.24,24.87-103.57.71-148.26-15.53-28.7-50.4-46.61-81.81-34.05-32,12.78-53.7,44.7-70.92,73-25,41-43.74,85.82-61.37,130.34C758.67,389.2,735.07,478,698.6,561.21c-3.88,8.83-8,17.74-13.54,25.7-8.28,12,11.23,23.19,19.43,11.35Z"/>
            <path class="cls-3"
                  d="M848.11,670c71-36.08,130.73-90.66,192-140.69,21.16-17.29,106.14-94.25,125.68-43.14,11,28.83-2.8,59.3-17.76,83.81-18.22,29.87-42.9,55.67-67.42,80.38-24.37,24.56-49.31,48-76.39,69.62C968.94,748.1,932,774,897.49,803c-11.12,9.35,4.88,25.18,15.91,15.91,34.53-29,71.31-55.12,106.71-83.05,28.22-22.26,53.89-46.95,79.17-72.42,41.27-41.59,97.86-99.23,92.49-163.09-2-23.43-14-48.7-39.18-53.11-24.81-4.34-50.25,10.13-70.43,22.75-60.8,38.06-112.2,90.7-169.76,133.25a537.08,537.08,0,0,1-75.64,47.3c-12.94,6.58-1.55,26,11.35,19.43Z"/>
        </g>
    </g>
</svg>