<svg xmlns="http://www.w3.org/2000/svg" viewBox="0 0 1147.08 1147.09">
    <defs>
        <style>.cls-1{fill:#a7cd88;}.cls-2{fill:#fff;}.cls-3{fill:#604c3f;}</style>
    </defs>
    <g id="Layer_2">
        <g id="layer1">
            <circle class="cls-1" cx="573.54" cy="573.54" r="573.54"/>
        </g>
        <g id="layer2">
            <path class="cls-2"
                  d="M872.56,832.57C840.39,953.65,797,1117.49,640.31,1108.45c-40.62-2.38-100.59-10.35-138.15-26.4l-5.27.2C253,1057.57,221,916.88,217,899c-22.25-81.82.24-170.51,23.6-249.08,2.2-7.39,5.48-12.79,9.57-16.84,13.79-13.81,36.7-12.24,57.23-20.45,38.78-15.62,71-33.85,106.37-30.54,49.66,42,156.28,46.25,217.21,37.8,2.49-.32,5-.72,7.45-1.1,47.76-7.3,96.15-19.68,105.62,42.53,5.29,34.78-3.05,67.93-22.3,92.8a108.88,108.88,0,0,1-51.24,36.37l.24.79c7.83,14.63,23.93,29.53,30.49,33.44,63.15,34.44,139.1-11.88,182.15-56.08l5,2.62C882.75,796.15,875.81,823.71,872.56,832.57Z"/>
            <path class="cls-2"
                  d="M749.88,23C859.51,53.32,820,187.66,793.05,271.52,781,319.3,736.41,444.23,724.3,492l2.64,2.88c-1.7,1.62-3.34,3.22-5,4.82-16.73,16.57-31.91,34.6-47,52.62-14,16.68-34.26,36.2-38.65,58.36l2.11,8.08c-2.49.38-5,.78-7.45,1.1-60.93,8.45-167.55,4.24-217.21-37.8-35.41-3.31-67.59,14.92-106.37,30.54-20.53,8.21-43.44,6.64-57.23,20.45C261,617.71,268.4,609.24,271,596.27c14-55.79,17.26-113.69,23.21-171.07,5.94-71.35,11.34-140,14.63-211.86,1.62-35.94-1.55-75.62,3.31-113.71C320.25,45.47,368,2.06,417.85,45.54c54.14,49.92,61.58,151.84,68,217.29,7.45,60.06,12.69,227.23,11.58,288.39l4.81,5c10.73,21.68,36.06-93.18,40.08-100.76,29-69.47,51.38-143.1,75.6-213.55,22.57-62.41,44.36-133.34,78-188C710.39,31.76,725.7,18.1,749.88,23Z"/>
            <path class="cls-2"
                  d="M879,577.21a120.6,120.6,0,0,1-15.18,29.26c-25.92,37.51-58.8,75.22-90.51,108.2-14.34,14.9-31.53,30.24-50.78,40l-.8-.59c19.25-24.87,27.59-58,22.3-92.8-9.47-62.21-57.86-49.83-105.62-42.53l-2.11-8.08C640.73,588.53,661,569,675,552.33c15.09-18,30.27-36.05,47-52.62,1.61-1.6,3.25-3.2,5-4.82,27.43-26.31,65.72-55.43,105.08-41.32C885,473,895.76,530.35,879,577.21Z"/>
            <path class="cls-2"
                  d="M937,622.7c22.35,49.28-21.41,112.12-53.63,145.92-43,44.2-119,90.52-182.15,56.08-6.56-3.91-22.66-18.81-30.49-33.44l-.24-.79a108.88,108.88,0,0,0,51.24-36.37l.8.59c19.25-9.78,36.44-25.12,50.78-40,31.71-33,64.59-70.69,90.51-108.2A120.6,120.6,0,0,0,879,577.21C903.7,576.62,927.14,602.81,937,622.7Z"/>
        </g>
        <g id="layer3">
            <path class="cls-3"
                  d="M496.87,1071C398.05,1060.6,285.29,1024.73,239,928.45c-16.11-33.48-20.44-74.26-19.74-111.12.89-47,12.11-93.42,24.69-138.49,4.73-17,6.7-37.39,25.15-44.38,15.14-5.74,31.42-7,46.55-13.16,31.6-12.89,63-30.33,98.15-28l-8-3.3c44.3,36.22,107.1,43.6,162.4,44.64,26.79.5,53.35-1.87,79.78-6.06,21-3.33,52.29-11.83,70.69,3.14,21.32,17.34,17.6,58.12,11.32,81.4-7.61,28.2-27.75,50.23-53.61,62.94-30.59,15-72.33,13.53-105.5,12.1-18.46-.8-36.81-3.25-52.79-12.92-14-8.49-26.35-18.82-43.05-21.38-14.18-2.17-20.28,19.51-6,21.7,17.24,2.64,30.12,15.14,45,23.32,16.84,9.27,38.07,10.62,56.86,11.78,36.18,2.23,79.63,1.55,113.26-13.56,58.5-26.27,88.29-98,65.59-158.43-22.14-58.92-97-31.07-142.63-27.61a422.23,422.23,0,0,1-102.61-4.56,267.73,267.73,0,0,1-46.92-12.45,149.37,149.37,0,0,1-21-9.85c-6.39-3.54-12.89-11.1-19.81-13-16.29-4.48-37.7,1.71-53.2,6.57-21.51,6.73-41.59,17.38-62.66,25.26-26.34,9.86-58.85,7.86-69.79,39.83-28.48,83.27-44.3,172.77-24.88,259.5,13.88,62,61.86,111.09,115.72,141.41,53.35,30,114.56,43.36,174.89,49.72,14.43,1.51,14.28-21,0-22.5Z"/>
            <path class="cls-3"
                  d="M647.18,613.68c6-24.52,27-43,42.73-61.71,18.73-22.24,38.09-44,60.25-62.89,20.42-17.42,46.62-32.58,74.24-26.13,20.63,4.82,37.43,21.91,45,41.15,16.3,41.36-3.44,81.13-27.7,114-17.84,24.19-37.66,46.94-58,69.09-20,21.88-40.42,43.66-66.89,57.78-12.8,6.84-1.44,26.26,11.36,19.43,29.76-15.88,52.59-40.73,75.11-65.31a865.64,865.64,0,0,0,67.21-82.61c27.36-38.45,37-90.27,13.81-133.15-11.28-20.9-31.75-35.06-54-42.09-28.88-9.11-59.39,4.88-82.55,21.3-26.89,19.07-49.09,44.43-70.32,69.37-19.39,22.78-44.72,45.74-52,75.78-3.43,14.09,18.27,20.07,21.7,6Z"/>
            <path class="cls-3"
                  d="M878,588.45c37.8.24,58.16,47.55,52.3,79.36-6.52,35.31-30.83,67.32-54.86,92.86C829,810,726.41,864.3,680.49,785.57c-7.31-12.52-26.75-1.2-19.43,11.36,56.09,96.16,178.21,36.54,235.35-25.77,29.26-31.91,55.65-72.44,58-116.79,2.11-40.45-34-88.16-76.36-88.42-14.52-.09-14.51,22.41,0,22.5Z"/>
            <path class="cls-3"
                  d="M877.52,768.26c-10.27,45.24-22.71,90.32-36.41,134.64-13.22,42.76-29.65,85-55.17,122.05-24.69,35.84-59.81,61.52-102.78,70-26.14,5.15-53.62,2-79.82-1-30.63-3.42-61.48-9.63-90.05-21.42-13.41-5.54-19.2,16.24-6,21.7,29.11,12,60.11,17.63,91.2,21.64,27.54,3.55,55.88,6.13,83.48,1.9,46.09-7.07,84.86-32.27,113.65-68.46,29.59-37.2,48-82.09,62.81-126.84,16.07-48.46,29.47-98.52,40.77-148.27,3.21-14.13-18.49-20.13-21.7-6Z"/>
            <path class="cls-3"
                  d="M500.65,789.51c38.8,39.54,19.86,134.3-30.73,156.16-13.28,5.74-1.81,25.12,11.36,19.43,64.23-27.76,83.37-142.49,35.28-191.5-10.18-10.37-26.07,5.55-15.91,15.91Z"/>
            <path class="cls-3"
                  d="M258.75,640.36c9.22-13,19.28-25.3,23.11-41.1a658.43,658.43,0,0,0,12.9-70.78c6.15-47.65,10.13-95.65,14-143.53,3.85-47.51,7.29-95,9.89-142.63,2.59-47.44-2.88-97.17,5.08-144.06,5.75-33.83,34.72-72.28,72.39-54.15,31.6,15.21,47.72,55.55,57.32,86.84,17.6,57.37,21.24,120.08,25.33,179.74,5.47,79.84,8.7,160.48,7.36,240.52-.24,14.51,22.26,14.49,22.5,0,1.93-116-3.12-233.91-18.07-349-8-61.95-23.43-143.83-83.09-177.51-28.59-16.15-60.93-6.25-81.69,17.2-26.62,30.06-27.39,71.73-27.73,109.65-.74,81.9-6.07,163.24-12.72,244.87-3.44,42.16-7.17,84.39-12.35,126.37a631.14,631.14,0,0,1-11.46,64.92c-3.79,16.36-12.63,27.79-22.21,41.31-8.4,11.87,11.12,23.09,19.43,11.36Z"/>
            <path class="cls-3"
                  d="M492.49,561.89c10.17,18,25.91,2.92,31.49-9.43,9.2-20.38,14.69-42.53,20.54-64,2.23-8.2,4.37-16.43,6.76-24.58,1.62-5.52.25-1.5,1.86-5.38q7.59-18.3,14.67-36.82c17-44.19,31.59-89.24,46.54-134.14q20.91-62.74,43.71-124.88C672.33,124,687.61,79.86,714.31,47.79c22.82-27.43,58.89-8.42,77.94,14,16.92,19.87,19.64,48.82,19.08,73.75-1.27,57.27-22.63,114.2-39.35,168.43-19,61.76-42.41,122.49-58.52,185.11-3.61,14.06,18.09,20,21.7,6,14.94-58.08,36.19-114.63,54.33-171.75,16.31-51.4,34.29-104,41.66-157.54,7.13-51.83,1.41-109-46.17-139.89-26.16-17-56.5-21.08-81,.29-13.13,11.43-21.78,28.29-29.86,43.35C664,88.22,655.62,107.84,647.6,127.53c-38.42,94.34-65.4,192.94-101.48,288.13-9.55,25.18-18.34,48.79-25.46,74.68-3.5,12.74-7.17,25.44-11.37,38-1.66,4.94-3.42,9.86-5.56,14.6a55.78,55.78,0,0,1-3.18,6c-2.25,3.72,14.07,6.43,11.37,1.66-7.14-12.62-26.58-1.28-19.43,11.36Z"/>
        </g>
    </g>
</svg>