<svg xmlns="http://www.w3.org/2000/svg" viewBox="0 0 1147.09 1147.09">
    <defs>
        <style>.cls-1{fill:#fbd166;}.cls-2{fill:#fff;}.cls-3{fill:#604c3f;}</style>
    </defs>
    <g id="Layer_2">
        <g id="layer1">
            <circle class="cls-1" cx="573.54" cy="573.54" r="573.54"/>
        </g>
        <g id="layer2">
            <path class="cls-2"
                  d="M221.42,631.26c-23.9-60.41-92.71-259.18-27.39-308.78,61.93-46.35,138.84,1.36,163.37,63.75,1.68,4.14,3.61,8.75,5.64,13.7,13.86,42.18,32.3,82.35,42.1,107.14l.63,3.12c-23.06,4.73-45.24,6-64.84,2.19-36.51,16.18-58,51.67-87.5,88.25-9.66,12-22.29,20.75-31.93,30.7Z"/>
            <path class="cls-2"
                  d="M723.63,552.05c13.6-7.17,26.76-16.95,36.77-28.21.35-.41.71-.82,1.06-1.26.12,30.06,60.76,16.95,74,10.51,43.69-23.54,61.67-70.28,65.47-118.52l1.81.16c9.69,30.35,23,78,25.15,91.59C962.69,642.62,1010,826.91,851.48,904c-41.08,20-109.3,48.1-154.87,53-252.55,109.52-361-10.81-374.75-26.16-66.67-68-93.23-167.22-113.44-257-4.34-19.34,2.59-31.6,13.08-42.46,9.64-10,22.27-18.72,31.93-30.7,29.46-36.58,51-72.07,87.5-88.25,19.6,3.83,41.78,2.54,64.84-2.19,61.34-12.56,128.71-49.53,168.77-79.85C619.8,396.09,662.37,350.3,708,409,741.88,452.45,748,507.41,723.63,552.05Z"/>
            <path class="cls-2"
                  d="M559.38,379.25l.11,0c5.81,19.26,11.4,36.86,15,51.13-40.06,30.32-107.43,67.29-168.77,79.85l-.63-3.12c-9.8-24.79-28.24-65-42.1-107.14-19.86-60.54-30.21-125.19,8.3-154.43,62-46.33,138.85,1.37,163.38,63.78C543.82,331.49,552,355.19,559.38,379.25Z"/>
            <path class="cls-2"
                  d="M761.46,522.58c-.35.44-.71.85-1.06,1.26-10,11.26-23.17,21-36.77,28.21C748,507.41,741.88,452.45,708,409c-45.65-58.65-88.22-12.86-133.48,21.39-3.65-14.27-9.24-31.87-15-51.13-20.61-68.35-44-157.89,6.88-196.6C617,144.73,677.66,169.7,711.5,214.14a135.79,135.79,0,0,1,18.25,32.23c19.39,47.36,34.73,101.42,46.31,151.47C785.48,438.43,790.61,488.54,761.46,522.58Z"/>
            <path class="cls-2"
                  d="M789.86,187.46C850,196.62,882.24,276.3,894.3,327.33c5.86,26.08,9,57,6.59,87.24-3.8,48.24-21.78,95-65.47,118.52-13.2,6.44-73.84,19.55-74-10.51,29.15-34,24-84.15,14.6-124.74-11.58-50-26.92-104.11-46.31-151.47a135.79,135.79,0,0,0-18.25-32.23C726.1,190.6,765.09,184.6,789.86,187.46Z"/>
        </g>
        <g id="layer3">
            <path class="cls-3"
                  d="M690.92,947.24c-103.28,44.31-234.63,70.94-333.14.83-29.71-21.15-53.35-52.38-71.61-83.22C265.55,830,251.6,791.7,240.09,753.06c-5.42-18.2-10.09-36.62-14.53-55.08-4.29-17.86-12-36.45-1-53.09,5.87-8.84,15.77-15.66,23.59-22.66,10.78-9.66,19.29-21.25,28.1-32.67,20.09-26,39.83-53.12,70.35-67.47L338,523.23C400.28,534.3,465,507.48,519,478.8c27.63-14.67,53.17-32.23,77.69-51.58,22.9-18.08,53.81-46.87,84.23-29,27,15.88,42.78,55.19,45.76,84.93,3.18,31.67-8.08,62.46-29.05,86-24.16,27.16-61.9,47.17-94.27,62.73-17.33,8.33-35.13,14.6-54.5,13.94-18.35-.63-35.92-3.94-53.64,2.69-13.46,5-7.63,26.79,6,21.69,18.37-6.88,38-1.62,57.09-1.75,19.62-.13,38.94-9.11,56.42-17.14,34.73-16,72.36-38.33,98.82-66.25,47-49.59,45.19-124.63,6.78-178.42C700.54,379,672,362,638.14,374c-31.82,11.24-56.8,38.43-84.09,57.31C497.54,470.35,422.62,508.61,352,502.72c-8.74-.72-12.67-2-20.84,1.9a106.25,106.25,0,0,0-21.3,13.86c-16.11,13.06-29.14,28.94-41.82,45.24-11.41,14.67-22,29.95-35.74,42.6-11.15,10.29-23,19.44-30.58,32.87-7.43,13.15-6.27,27.94-3.08,42.08,4.49,19.89,9.29,39.7,14.59,59.39,10.21,37.89,23.08,75.07,40.14,110.44C289.66,926.41,348,984.62,430.1,1005.23c91.42,22.94,187.87-2.4,272.17-38.56,13.3-5.7,1.83-25.08-11.35-19.43Z"/>
            <path class="cls-3"
                  d="M229.75,614.66a968.19,968.19,0,0,1-38.24-117.15c-10.86-42.84-21.36-92.12-9.52-135.82,5.85-21.6,20.85-35,41.73-42.53,26.75-9.6,55-1,77.74,14,24.14,15.92,38.52,40.17,49.29,66.24,11.39,27.56,23.24,55.05,32.57,83.4,4.52,13.71,26.25,7.84,21.7-6-10.11-30.72-23.12-60.47-35.44-90.36C357.81,358,340.9,334.73,316.12,316.1c-43.65-32.83-115.36-32.84-146.49,17.39C144.19,374.54,155,433.91,164,478.1c9.94,48.71,25.86,96.34,44.07,142.54,5.26,13.34,27,7.53,21.7-6Z"/>
            <path class="cls-3"
                  d="M416,504.06c-14.26-35.8-30.1-70.86-42.22-107.49-12.36-37.33-25.77-82.94-11.39-121.51,7.69-20.62,30.18-31.69,50.37-35.86,24.55-5.08,49.67,5.51,69.33,19.37,22.28,15.7,36.06,39.09,45.86,63.9,12.51,31.69,22.41,64.39,31.28,97.25,3.78,14,25.48,8,21.7-6-9.84-36.45-21.2-72.44-35.36-107.46-10.32-25.51-26.79-48.09-48.88-64.7-42-31.57-106.38-37.75-143.41,5.75-29.82,35-19.48,89.41-8.84,129.71,12.13,46,32.34,89,49.86,133,5.3,13.31,27.07,7.51,21.7-6Z"/>
            <path class="cls-3"
                  d="M585.38,427.34C572,375.9,551.69,326,547.52,272.53c-1.87-24-.19-51.32,15.33-71,19.22-24.32,53-30.51,81.52-22.61,71.54,19.84,90.39,107.51,107.52,169.11,9.64,34.61,19.92,70.34,20.31,106.51.42,40.35-20,69.06-54.82,88.07-12.74,7-1.38,26.38,11.36,19.43,34.65-18.9,58.84-47.13,64.48-86.84,5.35-37.67-4.76-75.64-14-111.88C768.4,320.7,756,277.21,737.94,237a150.2,150.2,0,0,0-66.57-71.24c-55.83-29.44-127.77-4.53-143.3,58.74-14.39,58.61,10.35,124.1,27.22,179.59,3,9.7,5.85,19.43,8.39,29.26,3.64,14,25.35,8.07,21.7-6Z"/>
            <path class="cls-3"
                  d="M720.6,220.78c12.75-19.81,41.13-23.31,62.7-22.61,24.16.78,44.41,18.23,58.4,36.48,27.4,35.76,42.09,83.2,47.08,127.52,5.13,45.64.72,95.69-26.87,133.89a79.48,79.48,0,0,1-47.45,31.67c-8.22,1.84-41.38,8.33-41.76-5.94-.38-14.48-22.89-14.52-22.5,0,1.35,51,82.37,29.16,106.79,10.6C905.12,495.8,915.87,430,912.25,373.25s-22.8-117.24-60-161.06c-18.41-21.69-43.83-35.71-72.42-36.64-29-.93-62.24,8.36-78.66,33.88-7.88,12.24,11.61,23.5,19.43,11.35Z"/>
            <path class="cls-3"
                  d="M891.85,417.71c15.71,49.63,28,100.28,39.85,151,12.14,52,21.61,105.13,19.24,158.7-2.22,49.95-18.7,97.94-55.16,133.16-21.62,20.89-48.89,33.77-76,45.81-34.55,15.31-71.62,28.7-109.34,33.17-14.23,1.69-14.39,24.21,0,22.5,37.81-4.48,73.78-16.54,108.79-31.14,30-12.52,59-26.31,84.19-47C945.49,849.27,966,798,972,745.09c6.45-56-3.42-113.36-15.36-167.91-12.16-55.57-26-111.21-43.13-165.45-4.37-13.78-26.09-7.89-21.7,6Z"/>
            <path class="cls-3"
                  d="M540.23,666.73c32.78,9.51,52.83,43.06,63.33,73.43,10.83,31.29,14.19,70.78-7.08,98.47-8.84,11.51,10.72,22.69,19.42,11.36,25-32.5,21.27-79,9.36-115.81-12.32-38.09-38.82-77.47-79-89.15-14-4.06-19.89,17.66-6,21.7Z"/>
        </g>
    </g>
</svg>